<svg xmlns="http://www.w3.org/2000/svg" viewBox="66 350.5 361 361" width="361" height="361" role="img" aria-label="YUnited">
  <title>YUnited</title>
  <rect x="66" y="350.5" width="361" height="361" fill="rgb(172,12,16)"/>
  <path d="M 115.02 643.36 L 115.05 631.50 L 122.09 627.54 C131.57,622.20 143.10,610.10 150.29,597.91 L 155.85 588.50 L 151.68 587.87 C139.51,586.03 130.36,577.48 126.37,564.24 C125.58,561.63 123.84,549.83 122.49,538.00 C119.43,511.15 115.00,467.65 115.00,464.42 L 115.00 462.00 L 131.86 462.00 L 148.72 462.00 L 149.38 468.25 C149.75,471.69 151.61,491.31 153.53,511.86 C157.23,551.54 157.79,554.27 162.92,557.29 C169.16,560.98 169.02,561.14 182.43,533.75 C194.96,508.13 201.45,493.54 204.32,484.50 C205.63,480.38 208.00,466.47 208.00,462.93 C208.00,462.39 215.23,462.00 225.03,462.00 C239.87,462.00 242.14,462.21 242.69,463.63 C243.64,466.11 241.05,480.60 238.24,488.50 C236.87,492.35 232.49,502.48 228.50,511.00 C224.51,519.53 220.23,528.75 218.99,531.50 C202.82,567.36 186.98,598.68 178.70,611.15 C170.77,623.10 156.82,637.18 146.69,643.45 C139.14,648.12 126.47,653.15 118.75,654.55 L 115.00 655.22 L 115.02 643.36 Z M 272.73 588.91 C263.90,586.83 257.62,581.81 254.08,574.00 C251.31,567.87 251.42,556.74 254.45,537.00 C255.76,528.47 258.77,508.11 261.14,491.75 L 265.44 462.00 L 282.72 462.00 C295.89,462.00 300.00,462.30 299.98,463.25 C299.96,464.81 298.13,475.77 293.61,501.50 C291.67,512.50 288.92,528.18 287.48,536.34 C286.05,544.51 285.16,552.43 285.49,553.95 C287.12,561.39 296.07,564.82 307.65,562.43 C316.94,560.52 333.00,554.86 333.00,553.50 C333.00,553.24 334.56,543.45 336.46,531.76 C338.37,520.07 341.52,500.60 343.46,488.50 C345.40,476.40 347.22,465.49 347.51,464.25 C348.03,462.03 348.23,462.00 365.02,462.00 L 382.00 462.00 L 382.00 464.32 C382.00,465.59 381.55,469.08 381.00,472.07 C380.45,475.05 376.41,499.55 372.03,526.50 C367.64,553.45 363.54,578.31 362.91,581.75 L 361.77 588.00 L 348.46 588.00 L 335.14 588.00 L 333.52 582.25 C332.64,579.09 331.73,575.96 331.50,575.30 C331.24,574.51 328.60,575.48 323.80,578.13 C314.85,583.07 306.12,586.84 299.50,588.63 C293.95,590.12 278.58,590.29 272.73,588.91 Z" fill="rgb(254,254,254)"/>
</svg>
