<svg xmlns="http://www.w3.org/2000/svg" viewBox="66 359 916 344" width="916" height="344" role="img" aria-label="YUnited">
  <title>YUnited</title>
  <!-- Login-screen variant of yunited-logo.svg: the wordmark fill follows the
       viewer's colour scheme so it stays legible on Sveltia's dark theme. The
       red mark + white monogram already read on both. -->
  <style>
    .wordmark { fill: #1a1a1a; }
    @media (prefers-color-scheme: dark) { .wordmark { fill: #f4ecdd; } }
  </style>
  <path class="wordmark" d="M 910.50 582.17 C884.25,589.91 873.22,589.74 862.34,581.44 C857.94,578.09 853.42,571.09 851.39,564.50 C845.65,545.84 849.73,510.23 859.98,489.53 C866.90,475.58 878.11,465.12 889.93,461.61 C900.64,458.43 920.65,460.08 938.01,465.56 C942.51,466.98 946.40,467.94 946.65,467.68 C946.91,467.42 949.43,452.54 952.26,434.61 L 957.40 402.00 L 966.67 402.00 C973.66,402.00 975.83,402.31 975.48,403.25 C975.23,403.94 968.71,445.00 960.99,494.50 C953.27,544.00 946.74,585.08 946.49,585.80 C946.16,586.72 944.21,587.01 939.77,586.80 L 933.51 586.50 L 932.10 581.20 C930.99,577.05 930.34,576.04 929.09,576.53 C928.22,576.88 919.85,579.41 910.50,582.17 ZM 802.73 585.22 C788.01,587.97 760.93,589.72 754.00,588.38 C734.53,584.59 727.40,573.03 727.59,545.50 C727.73,523.46 732.47,500.56 739.79,486.54 C746.68,473.31 756.14,466.11 771.50,462.39 C780.33,460.25 807.78,459.89 816.12,461.80 C824.32,463.68 831.85,468.56 835.38,474.29 C843.85,488.01 836.55,515.44 821.74,525.60 C810.06,533.61 795.47,536.48 766.87,536.38 L 746.25 536.31 L 745.71 541.56 C745.04,547.98 746.42,559.67 748.39,564.39 C749.21,566.36 751.16,568.55 752.88,569.44 C760.88,573.58 783.61,573.78 807.90,569.93 C814.71,568.84 820.44,568.11 820.62,568.29 C821.06,568.72 819.02,581.31 818.42,581.91 C818.16,582.17 811.10,583.66 802.73,585.22 ZM 883.00 570.94 C891.09,572.61 905.41,570.52 924.70,564.85 C930.92,563.03 931.97,562.38 932.44,560.12 C933.52,554.86 944.82,482.61 944.60,482.32 C944.53,482.22 939.75,481.13 933.98,479.90 C926.31,478.27 919.89,477.65 910.00,477.59 C897.82,477.51 895.99,477.73 891.24,479.88 C879.85,485.02 872.63,499.18 868.48,524.50 C866.79,534.86 866.55,550.84 868.02,556.12 C870.21,564.02 875.69,569.44 883.00,570.94 ZM 479.33 575.75 L 477.71 586.00 L 468.86 586.00 C462.43,586.00 460.00,585.66 460.01,584.75 C460.03,583.50 462.82,565.76 473.61,498.25 L 479.40 462.00 L 486.09 462.00 C486.30,462.00 486.49,462.00 486.69,462.00 C489.83,462.00 491.53,462.00 492.54,462.83 C493.78,463.86 493.97,466.17 494.52,471.33 C494.91,475.00 495.40,478.00 495.61,478.00 C495.81,478.00 500.37,475.55 505.74,472.56 C519.85,464.69 532.04,460.82 544.57,460.23 C561.71,459.42 571.56,464.28 577.53,476.48 C582.48,486.59 582.34,488.32 570.97,557.00 C569.29,567.17 567.64,577.86 567.32,580.75 L 566.72 586.00 L 557.29 586.00 C548.79,586.00 547.91,585.83 548.36,584.25 C548.63,583.29 549.11,580.70 549.42,578.50 C549.73,576.30 552.91,556.50 556.48,534.50 C561.89,501.20 562.84,493.62 562.14,489.24 C560.65,479.94 555.93,477.00 542.48,477.00 C530.02,477.00 521.32,479.28 506.29,486.51 C495.92,491.49 492.96,493.36 492.53,495.18 C492.03,497.30 483.17,551.43 479.33,575.75 ZM 700.42 586.14 C699.79,587.16 682.69,587.07 675.48,586.01 C665.50,584.55 659.17,579.54 655.44,570.16 C653.28,564.73 653.87,550.20 656.96,533.00 C658.09,526.67 660.37,512.95 662.01,502.50 C663.64,492.05 665.20,482.26 665.47,480.75 L 665.95 478.00 L 643.72 478.00 L 644.41 471.28 C644.79,467.59 645.28,464.39 645.50,464.17 C645.81,463.85 665.37,461.16 668.25,461.03 C668.66,461.01 669.00,460.30 669.00,459.45 C669.00,458.60 671.34,450.72 674.20,441.95 L 679.40 426.00 L 686.77 426.00 C693.32,426.00 694.08,426.19 693.59,427.75 C692.79,430.34 688.00,458.16 688.00,460.22 C688.00,461.86 689.42,462.00 705.88,462.00 L 723.76 462.00 L 722.94 466.25 C722.50,468.59 721.86,472.19 721.52,474.25 L 720.91 478.00 L 702.45 478.00 C692.30,478.00 684.00,478.17 684.00,478.39 C684.00,479.08 677.18,522.98 674.45,539.84 C672.93,549.26 672.08,557.60 672.44,559.53 C673.56,565.48 681.37,569.82 696.87,573.09 L 702.25 574.22 L 701.60 579.74 C701.24,582.78 700.71,585.66 700.42,586.14 ZM 748.00 520.03 C748.00,520.62 754.62,521.00 764.87,521.00 C782.95,521.00 795.02,519.46 804.36,515.97 C814.47,512.18 821.00,502.01 821.00,490.04 C821.00,481.10 816.34,478.18 800.63,477.31 C785.00,476.44 772.44,478.85 764.32,484.28 C760.39,486.90 758.75,489.00 755.44,495.60 C752.11,502.23 748.00,515.74 748.00,520.03 ZM 609.00 584.80 C609.00,586.14 591.03,586.59 590.96,585.25 C590.94,584.84 595.32,556.71 600.69,522.75 L 610.46 461.00 L 619.75 461.00 C628.87,461.00 629.03,461.04 628.53,463.25 C627.51,467.76 609.00,582.98 609.00,584.80 ZM 636.02 441.47 C635.04,442.65 632.52,443.00 624.95,443.00 C613.90,443.00 611.47,441.86 612.43,437.13 C612.72,435.68 613.41,431.58 613.96,428.00 C615.32,419.23 616.21,418.67 627.50,419.49 C639.43,420.36 639.68,420.64 638.34,431.46 C637.76,436.12 636.72,440.63 636.02,441.47 Z"/>
  <path d="M 427.00 359.00 L 427.00 703.00 L 66.02 703.00 L 65.99 359.00 ZM 115.02 643.36 L 115.00 655.22 L 118.75 654.55 C126.47,653.15 139.14,648.12 146.69,643.45 C156.82,637.18 170.77,623.10 178.70,611.15 C186.98,598.68 202.82,567.36 218.99,531.50 C220.23,528.75 224.51,519.53 228.50,511.00 C232.49,502.48 236.87,492.35 238.24,488.50 C241.05,480.60 243.64,466.11 242.69,463.63 C242.14,462.21 239.87,462.00 225.03,462.00 C215.23,462.00 208.00,462.39 208.00,462.93 C208.00,466.47 205.63,480.38 204.32,484.50 C201.45,493.54 194.96,508.13 182.43,533.75 C172.85,553.33 170.18,558.83 167.17,559.03 C165.99,559.11 164.76,558.38 163.05,557.37 L 162.92 557.29 C157.79,554.27 157.23,551.54 153.53,511.86 C151.61,491.31 149.75,471.69 149.38,468.25 L 148.72 462.00 L 115.00 462.00 L 115.00 464.42 C115.00,467.65 119.43,511.15 122.49,538.00 C123.84,549.83 125.58,561.63 126.37,564.24 C130.36,577.48 139.51,586.03 151.68,587.87 L 155.85 588.50 L 150.29 597.91 C143.10,610.10 131.57,622.20 122.09,627.54 L 115.05 631.50 ZM 272.73 588.91 C278.58,590.29 293.95,590.12 299.50,588.63 C306.12,586.84 314.85,583.07 323.80,578.13 C328.60,575.48 331.24,574.51 331.50,575.30 C331.73,575.96 332.64,579.09 333.52,582.25 L 335.14 588.00 L 361.77 588.00 L 362.91 581.75 C363.54,578.31 367.64,553.45 372.03,526.50 C376.41,499.55 380.45,475.05 381.00,472.07 C381.55,469.08 382.00,465.59 382.00,464.32 L 382.00 462.00 L 365.02 462.00 C348.23,462.00 348.03,462.03 347.51,464.25 C347.22,465.49 345.40,476.40 343.46,488.50 C341.52,500.60 338.37,520.07 336.46,531.76 C334.56,543.45 333.00,553.24 333.00,553.50 C333.00,554.86 316.94,560.52 307.65,562.43 C296.07,564.82 287.12,561.39 285.49,553.95 C285.16,552.43 286.05,544.51 287.48,536.34 C288.92,528.18 291.67,512.50 293.61,501.50 C298.13,475.77 299.96,464.81 299.98,463.25 C300.00,462.30 295.89,462.00 282.72,462.00 L 265.44 462.00 L 261.14 491.75 C258.77,508.11 255.76,528.47 254.45,537.00 C251.42,556.74 251.31,567.87 254.08,574.00 C257.62,581.81 263.90,586.83 272.73,588.91 Z" fill="rgb(172,12,16)"/>
  <path d="M 115.02 643.36 L 115.05 631.50 L 122.09 627.54 C131.57,622.20 143.10,610.10 150.29,597.91 L 155.85 588.50 L 151.68 587.87 C139.51,586.03 130.36,577.48 126.37,564.24 C125.58,561.63 123.84,549.83 122.49,538.00 C119.43,511.15 115.00,467.65 115.00,464.42 L 115.00 462.00 L 131.86 462.00 L 148.72 462.00 L 149.38 468.25 C149.75,471.69 151.61,491.31 153.53,511.86 C157.23,551.54 157.79,554.27 162.92,557.29 C169.16,560.98 169.02,561.14 182.43,533.75 C194.96,508.13 201.45,493.54 204.32,484.50 C205.63,480.38 208.00,466.47 208.00,462.93 C208.00,462.39 215.23,462.00 225.03,462.00 C239.87,462.00 242.14,462.21 242.69,463.63 C243.64,466.11 241.05,480.60 238.24,488.50 C236.87,492.35 232.49,502.48 228.50,511.00 C224.51,519.53 220.23,528.75 218.99,531.50 C202.82,567.36 186.98,598.68 178.70,611.15 C170.77,623.10 156.82,637.18 146.69,643.45 C139.14,648.12 126.47,653.15 118.75,654.55 L 115.00 655.22 L 115.02 643.36 Z M 272.73 588.91 C263.90,586.83 257.62,581.81 254.08,574.00 C251.31,567.87 251.42,556.74 254.45,537.00 C255.76,528.47 258.77,508.11 261.14,491.75 L 265.44 462.00 L 282.72 462.00 C295.89,462.00 300.00,462.30 299.98,463.25 C299.96,464.81 298.13,475.77 293.61,501.50 C291.67,512.50 288.92,528.18 287.48,536.34 C286.05,544.51 285.16,552.43 285.49,553.95 C287.12,561.39 296.07,564.82 307.65,562.43 C316.94,560.52 333.00,554.86 333.00,553.50 C333.00,553.24 334.56,543.45 336.46,531.76 C338.37,520.07 341.52,500.60 343.46,488.50 C345.40,476.40 347.22,465.49 347.51,464.25 C348.03,462.03 348.23,462.00 365.02,462.00 L 382.00 462.00 L 382.00 464.32 C382.00,465.59 381.55,469.08 381.00,472.07 C380.45,475.05 376.41,499.55 372.03,526.50 C367.64,553.45 363.54,578.31 362.91,581.75 L 361.77 588.00 L 348.46 588.00 L 335.14 588.00 L 333.52 582.25 C332.64,579.09 331.73,575.96 331.50,575.30 C331.24,574.51 328.60,575.48 323.80,578.13 C314.85,583.07 306.12,586.84 299.50,588.63 C293.95,590.12 278.58,590.29 272.73,588.91 Z" fill="rgb(254,254,254)"/>
</svg>
