<svg xmlns="http://www.w3.org/2000/svg" viewBox="0 0 863 340" width="863" height="340" role="img" aria-label="Yunited">
  <title>Yunited</title>
  <rect x="0" y="0" width="340" height="340" fill="#a3201f"/>
  <path d="M81.78 245L61 125.73L93.12 125.73L101.21 185.14Q104.24 208.05 104.57 217.26Q110.86 198.96 121.87 178.63L150.39 125.73L184.54 125.73L110.86 256.68Q101.77 272.96 96.54 279.48Q91.32 285.99 83.97 289.70Q76.61 293.40 66.28 293.40Q56.06 293.40 43.26 289.81L46.06 265.78Q51.90 267.46 57.41 267.46Q72.23 267.46 81.78 245M183.70 192.22L197.63 125.73L229.86 125.73L215.15 196.37Q212.45 209.06 212.45 212.21Q212.45 217.37 216.27 221.08Q220.09 224.79 226.04 224.79Q230.31 224.79 234.46 223.16Q238.62 221.53 243 218.22Q247.38 214.90 250.86 210.63Q254.34 206.37 257.37 199.40Q259.51 194.24 261.98 182.56L273.88 125.73L306.11 125.73L281.18 245L251.08 245L254.45 228.83Q234.69 247.81 211.44 247.81Q196.73 247.81 188.31 239.38Q179.88 230.96 179.88 216.81Q179.88 210.63 183.70 192.22" fill="#ffffff"/>
  <path d="M387.96 245L367.64 245L392.57 125.73L410.99 125.73L406.61 146.51Q418.62 134.27 429.07 128.65Q439.51 123.04 450.41 123.04Q464.89 123.04 473.15 130.90Q481.40 138.76 481.40 151.90Q481.40 158.53 478.48 172.79L463.32 245L442.99 245L458.83 169.42Q461.19 158.41 461.19 153.13Q461.19 147.18 457.09 143.48Q452.99 139.77 445.24 139.77Q429.63 139.77 417.44 151Q405.26 162.23 399.53 189.52L387.96 245M540.63 103.38L520.41 103.38L525.24 80.36L545.46 80.36L540.63 103.38M511.09 245L490.77 245L515.70 125.73L536.02 125.73L511.09 245M586.16 228.49L582.79 245.11Q575.49 247.02 568.64 247.02Q556.51 247.02 549.32 241.07Q543.93 236.58 543.93 228.83Q543.93 224.90 546.85 210.75L561.34 141.46L545.28 141.46L548.53 125.73L564.59 125.73L570.77 96.42L594.02 82.38L584.92 125.73L604.91 125.73L601.54 141.46L581.66 141.46L567.85 207.38Q565.27 219.96 565.27 222.43Q565.27 226.02 567.34 227.93Q569.42 229.84 574.14 229.84Q580.88 229.84 586.16 228.49M686.15 204.46L705.92 206.48Q701.65 221.19 686.32 234.44Q670.99 247.70 649.76 247.70Q636.51 247.70 625.45 241.57Q614.39 235.45 608.60 223.77Q602.82 212.09 602.82 197.16Q602.82 177.62 611.86 159.26Q620.90 140.89 635.28 131.97Q649.65 123.04 666.38 123.04Q687.72 123.04 700.47 136.29Q713.21 149.54 713.21 172.45Q713.21 181.21 711.64 190.42L623.82 190.42Q623.37 193.90 623.37 196.71Q623.37 213.44 631.06 222.26Q638.76 231.07 649.88 231.07Q660.32 231.07 670.43 224.22Q680.53 217.37 686.15 204.46M627.08 174.92L694.01 174.92Q694.12 171.78 694.12 170.43Q694.12 155.16 686.49 147.01Q678.85 138.87 666.83 138.87Q653.81 138.87 643.08 147.86Q632.36 156.84 627.08 174.92M799.28 245L802.88 227.71Q785.47 247.70 766.49 247.70Q749.53 247.70 738.25 235.17Q726.96 222.65 726.96 198.84Q726.96 177.06 735.89 159.03Q744.82 141.01 758.24 132.02Q771.66 123.04 785.13 123.04Q807.37 123.04 818.71 144.49L832.19 80.36L852.40 80.36L818.04 245L799.28 245M747.17 195.02Q747.17 207.49 749.64 214.68Q752.12 221.87 758.07 226.64Q764.02 231.41 772.33 231.41Q786.14 231.41 797.37 217.04Q812.42 197.94 812.42 169.87Q812.42 155.72 805.01 147.74Q797.60 139.77 786.37 139.77Q779.07 139.77 773.06 143.03Q767.05 146.28 761.16 154.09Q755.26 161.89 751.22 173.91Q747.17 185.93 747.17 195.02" fill="#111111"/>
</svg>
