<svg xmlns="http://www.w3.org/2000/svg" viewBox="0 0 361 361" width="361" height="361" role="img" aria-label="YUnited">
  <title>YUnited</title>
  <rect x="0" y="0" width="361" height="361" fill="rgb(172,12,16)"/>
  <g transform="translate(-60.72 -570.94) scale(1.3452)">
    <path d="M 115.02 643.36 L 115.05 631.50 L 122.09 627.54 C131.57,622.20 143.10,610.10 150.29,597.91 L 155.85 588.50 L 151.68 587.87 C139.51,586.03 130.36,577.48 126.37,564.24 C125.58,561.63 123.84,549.83 122.49,538.00 C119.43,511.15 115.00,467.65 115.00,464.42 L 115.00 462.00 L 131.86 462.00 L 148.72 462.00 L 149.38 468.25 C149.75,471.69 151.61,491.31 153.53,511.86 C157.23,551.54 157.79,554.27 162.92,557.29 C169.16,560.98 169.02,561.14 182.43,533.75 C194.96,508.13 201.45,493.54 204.32,484.50 C205.63,480.38 208.00,466.47 208.00,462.93 C208.00,462.39 215.23,462.00 225.03,462.00 C239.87,462.00 242.14,462.21 242.69,463.63 C243.64,466.11 241.05,480.60 238.24,488.50 C236.87,492.35 232.49,502.48 228.50,511.00 C224.51,519.53 220.23,528.75 218.99,531.50 C202.82,567.36 186.98,598.68 178.70,611.15 C170.77,623.10 156.82,637.18 146.69,643.45 C139.14,648.12 126.47,653.15 118.75,654.55 L 115.00 655.22 L 115.02 643.36 Z" fill="rgb(254,254,254)"/>
  </g>
</svg>
